{"accessors":[{"bufferView":0,"componentType":5123,"count":2880,"max":[558],"min":[0],"type":"SCALAR"},{"bufferView":1,"componentType":5126,"count":559,"max":[307.4518127441406,354.8169250488281,307.4518127441406],"min":[-307.4518127441406,-39.572959899902344,-307.4518127441406],"type":"VEC3"},{"bufferView":2,"componentType":5126,"count":559,"max":[0.9810153245925903,1.0,0.9810153245925903],"min":[-0.9810153841972351,-1.0,-0.9810153245925903],"type":"VEC3"},{"bufferView":3,"componentType":5126,"count":559,"max":[1.0,1.0000001192092896],"min":[-2.384185791015625e-07,0.0],"type":"VEC2"}],"asset":{"generator":"Verge3D for 3ds Max v4.10.0","version":"2.0"},"bufferViews":[{"buffer":0,"byteLength":5760,"byteOffset":0,"target":34963},{"buffer":0,"byteLength":6708,"byteOffset":5760,"target":34962},{"buffer":0,"byteLength":6708,"byteOffset":12468,"target":34962},{"buffer":0,"byteLength":4472,"byteOffset":19176,"target":34962}],"buffers":[{"byteLength":23648,"uri":"new3dgs.bin"}],"cameras":[{"extensions":{"S8S_v3d_camera":{"controls":"ORBIT","enablePan":true,"moveSpeed":1.0,"orbitMaxDistance":5000.0,"orbitMaxPolarAngle":3.141592653589793,"orbitMaxZoom":100.0,"orbitMinDistance":0.0,"orbitMinPolarAngle":0.0,"orbitMinZoom":0.009999999776482582,"orbitTarget":1,"rotateSpeed":1.0,"viewportFitInitialAspect":1.3333333333333333,"viewportFitType":"VERTICAL"}},"name":"Camera001","perspective":{"aspectRatio":1.3333333333333333,"yfov":0.6024156981946759,"zfar":1000.0,"znear":1.0},"type":"perspective"}],"extensions":{"S8S_v3d_clipping_planes":{},"S8S_v3d_curves":{},"S8S_v3d_light_probes":{},"S8S_v3d_lights":{"lights":[{"color":[1.0,1.0,1.0],"intensity":4.71238898038469,"name":"FDirect001","profile":"max","shadow":{"bias":-0.0,"cameraFar":505.0,"cameraFov":-1,"cameraNear":0.1,"enabled":false,"expBias":1,"mapSize":512,"radius":2.0,"slopeScaledBias":3.0},"type":"directional"},{"color":[0.0,0.0,0.0],"intensity":1,"profile":"max","type":"ambient"}]}},"extensionsUsed":["S8S_v3d_texture","KHR_materials_unlit","S8S_v3d_materials","S8S_v3d_camera","S8S_v3d_lights","S8S_v3d_node","S8S_v3d_light_probes","S8S_v3d_clipping_planes","S8S_v3d_curves","S8S_v3d_scene"],"images":[{"uri":"qj.JPG"},{"uri":"environment.hdr"}],"materials":[{"doubleSided":false,"emissiveFactor":[0.0,0.0,0.0],"extensions":{"KHR_materials_unlit":{}},"name":"template_material","pbrMetallicRoughness":{"baseColorTexture":{"index":0},"metallicFactor":0.0,"roughnessFactor":0.0}},{"extensions":{"S8S_v3d_materials":{"nodeGraph":{"edges":[{"fromNode":1,"fromOutput":0,"toInput":0,"toNode":0},{"fromNode":1,"fromOutput":1,"toInput":1,"toNode":0}],"nodes":[{"inputs":[[1,1,1,1]],"is_active_output":true,"name":"MaxOutput","outputs":[],"type":"OUTPUT_MX"},{"alphaAsMono":false,"alphaAsRGB":false,"alphaSource":"NONE","axis":"XY","clampToEdgeNoExtend":[false,false],"inputs":[0.0,0.0,1.0,1.0,0.0],"is_active_output":false,"mapping":"SPHERICAL_ENVIRONMENT","name":"Map #4","outputs":[[0,0,0,0]],"texture":1,"type":"BITMAP_ENV_MX","uvIndex":0}]},"profile":"max"}},"name":"Verge3D_Environment"}],"meshes":[{"name":"Sphere002","primitives":[{"attributes":{"NORMAL":2,"POSITION":1,"TEXCOORD_0":3},"indices":0,"material":0,"mode":4}]}],"nodes":[{"camera":0,"extensions":{"S8S_v3d_node":{"hidden":false,"hidpiCompositing":false}},"name":"Camera001","rotation":[-0.2313818335533142,-0.5949773788452148,-0.1842067390680313,0.7473500967025757],"scale":[0.9999999403953552,0.9999998807907104,1.0],"translation":[-35.54737091064453,93.19647216796875,136.36439514160156]},{"extensions":{"S8S_v3d_node":{"hidden":false,"hidpiCompositing":false}},"name":"Camera001.Target","translation":[87.04841613769531,7.044593811035156,108.16845703125]},{"extensions":{"S8S_v3d_node":{"frustumCulling":true,"hidden":false,"hidpiCompositing":false,"renderOrder":0,"useCastShadows":true,"useShadows":true}},"extras":{"customProps":{"babylonjs_GUID":"25907918-087c-45d5-b7b3-e8aa57ae202b"}},"mesh":0,"name":"Sphere002","rotation":[-0.0,0.9537169337272644,0.0,-0.30070582032203674],"scale":[1.2000000476837158,1.2000000476837158,1.2000000476837158],"translation":[-43.076847076416016,-25.74863624572754,92.08639526367188]},{"extensions":{"S8S_v3d_lights":{"light":0},"S8S_v3d_node":{"hidden":false,"hidpiCompositing":false}},"extras":{"customProps":{"babylonjs_GUID":"59481825-bee9-4350-84ec-caf2ec4e019b"}},"name":"FDirect001","rotation":[-0.5372995734214783,-0.0,-0.0,0.843391478061676],"scale":[1.0,1.0,1.0],"translation":[44.294189453125,48.53097915649414,167.7435302734375]},{"extensions":{"S8S_v3d_lights":{"light":1}},"rotation":[-0.7071068286895752,-0.0,-0.0,0.7071067690849304],"scale":[1.0,1.0,1.0],"translation":[0.0,0.0,0.0]}],"samplers":[{}],"scene":0,"scenes":[{"extensions":{"S8S_v3d_scene":{"aaMethod":"AUTO","iblEnvironmentMode":"PMREM","physicallyCorrectLights":true,"pmremMaxTileSize":256,"shadowMap":{"esmDistanceScale":0.30000001192092896,"renderReverseSided":false,"renderSingleSided":true,"type":"PCFPOISSON"},"unitsScaleFactor":1.0,"worldMaterial":1}},"extras":{"animFrameRate":30,"coordSystem":"Z_UP_RIGHT"},"name":"Scene","nodes":[0,1,2,3,4]}],"textures":[{"extensions":{"S8S_v3d_texture":{"colorSpace":"srgb"}},"name":"\u8d34\u56fe #14","sampler":0,"source":0},{"extensions":{"S8S_v3d_texture":{"colorSpace":"linear","source":1}},"name":"Map #4","sampler":0}]}
